<svg width="35" height="34" viewBox="0 0 35 34" fill="none" xmlns="http://www.w3.org/2000/svg">
<path d="M19.1914 30.4245L16.3935 34.0016L3.25391 26.6349L6.79557 22.6328L19.1914 30.4245Z" fill="#FFA297"/>
<path d="M12.0346 30.2448L13.2034 30.7406C15.8242 31.874 18.8701 31.201 20.818 29.1115L25.5992 23.8698L14.6909 13.9531L6.79297 22.6302L12.0346 30.2448Z" fill="#FFA297"/>
<path d="M31.0901 0.991667V26.1729C31.0901 26.7396 30.6297 27.1646 30.0984 27.1646H13.9839C13.4172 27.1646 12.9922 26.7042 12.9922 26.1729V0.991667C12.9922 0.460417 13.4172 0 13.9839 0H30.0984C30.6651 0 31.0901 0.460417 31.0901 0.991667Z" fill="#4EBEF6"/>
<path d="M28.1865 2.19479V9.73854C28.1865 10.3052 27.726 10.7302 27.1948 10.7302H24.5385C23.9719 10.7302 23.5469 10.2698 23.5469 9.73854V2.19479C23.5469 1.62812 24.0073 1.20312 24.5385 1.20312H27.1948C27.726 1.20312 28.1865 1.66354 28.1865 2.19479ZM28.1865 13.5281V13.6344C28.1865 14.201 27.726 14.626 27.1948 14.626H24.5385C23.9719 14.626 23.5469 14.1656 23.5469 13.6344V13.5281C23.5469 12.9615 24.0073 12.5365 24.5385 12.5365H27.1948C27.726 12.5365 28.1865 12.9969 28.1865 13.5281Z" fill="#8FE6F6"/>
<path d="M30.0987 18.5581H20.7841C20.1112 18.5581 19.5799 18.0268 19.5799 17.3539C19.5799 16.0789 19.5799 22.6664 19.5799 1.06224C19.5799 0.495573 19.1195 0.0351562 18.5529 0.0351562H13.9841C13.4174 0.0351562 12.957 0.495573 12.957 1.06224C12.957 3.36432 12.957 23.2685 12.957 26.1727C12.957 26.7393 13.4174 27.1997 13.9841 27.1997H30.0633C30.6299 27.1997 31.0904 26.7393 31.0904 26.1727V19.5852C31.0904 19.0185 30.6654 18.5581 30.0987 18.5581Z" fill="#4E82E7"/>
<path d="M30.0987 24.1206H21.1029C20.2529 24.1206 19.5799 23.4477 19.5799 22.5977C19.5799 14.5935 19.5799 16.8602 19.5799 8.74974C19.5799 8.18307 19.1195 7.72266 18.5529 7.72266H13.9841C13.4174 7.72266 12.957 8.18307 12.957 8.74974V26.1747C12.957 26.7414 13.4174 27.2018 13.9841 27.2018H30.0633C30.6299 27.2018 31.0904 26.7414 31.0904 26.1747V25.1477C31.0904 24.581 30.6654 24.1206 30.0987 24.1206Z" fill="#445FBA"/>
<path d="M28.7516 2.48047H24.8203V8.78464H28.7516V2.48047Z" fill="#FFD850"/>
<path d="M17.8458 21.6378C17.8458 20.6815 17.0667 19.9023 16.1104 19.9023C15.1542 19.9023 14.375 20.6815 14.375 21.6378C14.375 22.0628 14.375 23.3732 14.375 23.7982C14.375 24.7544 15.1542 25.5336 16.1104 25.5336C17.0667 25.5336 17.8458 24.7544 17.8458 23.7982C17.8458 23.3732 17.8458 22.0273 17.8458 21.6378Z" fill="#FF8D50"/>
<path d="M14.4792 28.0852L14.9396 27.2707C16.4271 24.5436 16.498 21.2852 15.1521 18.4873L13.6646 15.4769C13.3105 14.7332 13.3459 13.8123 13.8063 13.104L15.8605 9.88108C16.6396 8.64149 16.3917 7.01233 15.2938 6.05608C14.9396 5.77274 14.4438 5.80816 14.1605 6.16233L9.62713 11.9707C8.35213 13.6352 7.75005 15.7248 7.96255 17.8144L7.99796 18.2748C8.17505 19.9748 7.60838 21.7102 6.47505 22.9852C5.0938 24.5436 6.01463 26.9873 8.03338 27.2352L14.4792 28.0852Z" fill="#FFC5B5"/>
<path d="M15.2953 6.02092C14.9411 5.73759 14.4453 5.773 14.162 6.12717L9.66406 11.9709C8.38906 13.6355 7.78698 15.7251 7.99948 17.8147L8.0349 18.2751C8.21198 19.9751 7.68073 21.7105 6.51198 22.9855L3.28906 26.598L4.8474 27.4834L7.96406 24.0126C9.0974 22.7376 9.66406 21.0376 9.48698 19.3022L9.45156 18.8418C9.23906 16.7522 9.84115 14.6626 11.1161 12.998L15.6141 7.18967C15.7203 7.048 15.862 6.97717 16.0036 6.90634C15.8266 6.55217 15.5786 6.26884 15.2953 6.02092Z" fill="#FFA297"/>
<path d="M14.9403 27.2721C14.657 27.768 14.1257 28.0513 13.5591 27.9805H13.4174C12.9924 27.9096 12.7091 27.5201 12.7799 27.0951L13.2403 25.1117C13.3466 24.5805 13.3466 24.0138 13.1695 23.518L11.8591 19.3388C11.6111 18.5242 11.6466 17.6742 12.0007 16.9305L13.5591 13.6367C13.3466 14.2388 13.4174 14.8763 13.6653 15.443L15.1528 18.4534C16.4986 21.2513 16.4278 24.5451 14.9403 27.2721Z" fill="#FFDED3"/>
<path d="M22.0578 2.86875H20.8182C20.6057 2.86875 20.4641 2.72708 20.4641 2.51458C20.4641 2.30208 20.6057 2.16042 20.8182 2.16042H22.0578C22.2703 2.16042 22.412 2.30208 22.412 2.51458C22.412 2.72708 22.2349 2.86875 22.0578 2.86875ZM22.0578 5.70208H20.8182C20.6057 5.70208 20.4641 5.56042 20.4641 5.34792C20.4641 5.13542 20.6057 4.99375 20.8182 4.99375H22.0578C22.2703 4.99375 22.412 5.13542 22.412 5.34792C22.412 5.56042 22.2349 5.70208 22.0578 5.70208ZM22.0578 8.53542H20.8182C20.6057 8.53542 20.4641 8.39375 20.4641 8.18125C20.4641 7.96875 20.6057 7.82708 20.8182 7.82708H22.0578C22.2703 7.82708 22.412 7.96875 22.412 8.18125C22.412 8.39375 22.2349 8.53542 22.0578 8.53542ZM22.0578 11.3687H20.8182C20.6057 11.3687 20.4641 11.2271 20.4641 11.0146C20.4641 10.8021 20.6057 10.6604 20.8182 10.6604H22.0578C22.2703 10.6604 22.412 10.8021 22.412 11.0146C22.412 11.2271 22.2349 11.3687 22.0578 11.3687ZM22.0578 16.0792H20.8182C20.6057 16.0792 20.4641 15.9375 20.4641 15.725C20.4641 15.5125 20.6057 15.3708 20.8182 15.3708H22.0578C22.2703 15.3708 22.412 15.5125 22.412 15.725C22.412 15.9375 22.2349 16.0792 22.0578 16.0792ZM22.0578 18.9479H20.8182C20.6057 18.9479 20.4641 18.8063 20.4641 18.5938C20.4641 18.3813 20.6057 18.2396 20.8182 18.2396H22.0578C22.2703 18.2396 22.412 18.3813 22.412 18.5938C22.412 18.8063 22.2349 18.9479 22.0578 18.9479ZM22.0578 21.7813H20.8182C20.6057 21.7813 20.4641 21.6042 20.4641 21.4271C20.4641 21.2146 20.6411 21.0729 20.8182 21.0729H22.0578C22.2703 21.0729 22.412 21.25 22.412 21.4271C22.412 21.6042 22.2349 21.7813 22.0578 21.7813ZM22.0578 24.6146H20.8182C20.6057 24.6146 20.4641 24.4729 20.4641 24.2604C20.4641 24.0479 20.6057 23.9063 20.8182 23.9063H22.0578C22.2703 23.9063 22.412 24.0479 22.412 24.2604C22.412 24.4729 22.2349 24.6146 22.0578 24.6146ZM28.7516 19.4438C28.5391 19.4438 28.3974 19.3021 28.3974 19.0896V18.4167C28.3974 18.2042 28.5391 18.0625 28.7516 18.0625C28.9641 18.0625 29.1057 18.2042 29.1057 18.4167V19.0542C29.1411 19.2667 28.9641 19.4438 28.7516 19.4438ZM28.7516 22.0292C28.5391 22.0292 28.3974 21.8875 28.3974 21.675V21.0021C28.3974 20.7896 28.5391 20.6479 28.7516 20.6479C28.9641 20.6479 29.1057 20.7896 29.1057 21.0021V21.6396C29.1411 21.8521 28.9641 22.0292 28.7516 22.0292ZM28.3974 24.2604V23.5875C28.3974 23.375 28.5391 23.2333 28.7516 23.2333C28.9641 23.2333 29.1057 23.375 29.1057 23.5875V24.225C29.1057 24.4375 28.9641 24.5792 28.7516 24.5792C28.6807 24.6146 28.3974 24.5438 28.3974 24.2604ZM17.8432 4.81667C17.6307 4.81667 17.4891 4.675 17.4891 4.4625V2.47917C17.4891 2.26667 17.6307 2.125 17.8432 2.125C18.0557 2.125 18.1974 2.26667 18.1974 2.47917V4.4625C18.1974 4.675 18.0203 4.81667 17.8432 4.81667ZM17.4891 8.11042V6.12708C17.4891 5.91458 17.6307 5.77292 17.8432 5.77292C18.0557 5.77292 18.1974 5.91458 18.1974 6.12708V8.11042C18.1974 8.32292 18.0557 8.46458 17.8432 8.46458C17.737 8.46458 17.4891 8.39375 17.4891 8.11042ZM15.612 4.81667C15.3995 4.81667 15.2578 4.675 15.2578 4.4625V2.47917C15.2578 2.26667 15.3995 2.125 15.612 2.125C15.8245 2.125 15.9661 2.26667 15.9661 2.47917V4.4625C16.0016 4.675 15.8245 4.81667 15.612 4.81667ZM15.2578 6.44583V6.12708C15.2578 5.91458 15.3995 5.77292 15.612 5.77292C15.8245 5.77292 15.9661 5.91458 15.9661 6.12708V6.44583C15.9661 6.65833 15.8245 6.8 15.612 6.8C15.5411 6.8 15.2578 6.72917 15.2578 6.44583ZM17.4891 11.7583V9.775C17.4891 9.5625 17.6307 9.42083 17.8432 9.42083C18.0557 9.42083 18.1974 9.5625 18.1974 9.775V11.7583C18.1974 11.9708 18.0557 12.1125 17.8432 12.1125C17.737 12.1125 17.4891 12.0063 17.4891 11.7583Z" fill="#46417D"/>
<path d="M18.2338 31.5913C17.5255 31.8393 16.7817 31.9455 16.0025 31.9455C14.338 31.9455 13.3463 31.4143 12.0359 30.883C11.8588 30.8122 11.7525 30.5997 11.8588 30.4226C11.965 30.2455 12.1421 30.1393 12.3192 30.2455L13.488 30.7414C15.2942 31.5205 17.3838 31.4143 19.1192 30.458C19.19 30.4226 19.3317 30.2455 18.2338 31.5913Z" fill="#FF7579"/>
<path d="M28.7516 4.46094H24.8203V5.16927H28.7516V4.46094Z" fill="#FFFF8C"/>
<path d="M27.1576 4.8151V8.78177H26.4492V4.8151C26.4492 4.6026 26.5909 4.46094 26.8034 4.46094C27.0159 4.46094 27.1576 4.63802 27.1576 4.8151Z" fill="#FFFF8C"/>
</svg>
